<svg width="76" height="76" viewBox="0 0 76 76" fill="none" xmlns="http://www.w3.org/2000/svg">
<g filter="url(#filter0_dd_13639_2369)">
<path d="M52.4426 40.7223C52.4426 39.4293 51.3953 38.3821 50.1023 38.3821C48.8093 38.3821 47.7621 39.4293 47.7621 40.7223C47.7621 40.9856 47.8159 41.2348 47.8955 41.4724L38.4012 45.6918L28.9068 41.4724C28.9864 41.2348 29.0402 40.9856 29.0402 40.7223C29.0402 39.4293 27.993 38.3821 26.7 38.3821C25.407 38.3821 24.3598 39.4293 24.3598 40.7223C23.0668 40.7223 22.0195 41.7696 22.0195 43.0625C22.0195 44.3555 23.0668 45.4028 24.3598 45.4028C25.2374 45.4028 25.9944 44.9137 26.3946 44.1976L34.0787 47.6131L31.0751 48.9482C30.6749 48.2321 29.9178 47.743 29.0402 47.743C27.7472 47.743 26.7 48.7903 26.7 50.0832C26.7 51.3762 27.7472 52.4235 29.0402 52.4235C29.0402 53.7165 30.0875 54.7637 31.3805 54.7637C32.6734 54.7637 33.7207 53.7165 33.7207 52.4235C33.7207 52.1602 33.6669 51.911 33.5873 51.6734L50.4089 44.1976C50.8079 44.9137 51.565 45.4028 52.4426 45.4028C53.7355 45.4028 54.7828 44.3555 54.7828 43.0625C54.7828 41.7696 53.7355 40.7223 52.4426 40.7223Z" fill="url(#paint0_linear_13639_2369)"/>
<path d="M47.7623 47.7432C46.8847 47.7432 46.1277 48.2323 45.7275 48.9484L44.1642 48.2533L39.8418 50.1747L43.2152 51.6736C43.1357 51.9111 43.0818 52.1604 43.0818 52.4236C43.0818 53.7166 44.1291 54.7639 45.4221 54.7639C46.7151 54.7639 47.7623 53.7166 47.7623 52.4236C49.0553 52.4236 50.1025 51.3764 50.1025 50.0834C50.1025 48.7904 49.0553 47.7432 47.7623 47.7432Z" fill="url(#paint1_linear_13639_2369)"/>
<path d="M38.401 22.0007C33.2314 22.0007 29.04 26.1921 29.04 31.3617V35.959C29.04 36.7419 29.4309 37.4732 30.0826 37.9061L32.5504 39.5525V41.8927H34.8906V39.5525H37.2309V41.8927H39.5711V39.5525H41.9113V41.8927H44.2515V39.5525L46.7193 37.9073C47.3711 37.4732 47.7619 36.7419 47.7619 35.9602V31.3617C47.7619 26.1921 43.5705 22.0007 38.401 22.0007ZM33.7205 36.0421C32.4287 36.0421 31.3803 34.9937 31.3803 33.7019C31.3803 32.4089 32.4287 31.3617 33.7205 31.3617C35.0135 31.3617 36.0607 32.4089 36.0607 33.7019C36.0607 34.9937 35.0135 36.0421 33.7205 36.0421ZM37.2309 37.2122C37.2309 35.9193 37.7551 34.872 38.401 34.872C39.0469 34.872 39.5711 35.9193 39.5711 37.2122H37.2309ZM43.0814 36.0421C41.7896 36.0421 40.7412 34.9937 40.7412 33.7019C40.7412 32.4089 41.7896 31.3617 43.0814 31.3617C44.3744 31.3617 45.4217 32.4089 45.4217 33.7019C45.4217 34.9937 44.3744 36.0421 43.0814 36.0421Z" fill="url(#paint2_linear_13639_2369)"/>
</g>
<defs>
<filter id="filter0_dd_13639_2369" x="0.819782" y="0.800983" width="75.1632" height="75.1627" filterUnits="userSpaceOnUse" color-interpolation-filters="sRGB">
<feFlood flood-opacity="0" result="BackgroundImageFix"/>
<feColorMatrix in="SourceAlpha" type="matrix" values="0 0 0 0 0 0 0 0 0 0 0 0 0 0 0 0 0 0 127 0" result="hardAlpha"/>
<feOffset dy="3.8545"/>
<feGaussianBlur stdDeviation="1.92725"/>
<feComposite in2="hardAlpha" operator="out"/>
<feColorMatrix type="matrix" values="0 0 0 0 0 0 0 0 0 0 0 0 0 0 0 0 0 0 0.25 0"/>
<feBlend mode="normal" in2="BackgroundImageFix" result="effect1_dropShadow_13639_2369"/>
<feColorMatrix in="SourceAlpha" type="matrix" values="0 0 0 0 0 0 0 0 0 0 0 0 0 0 0 0 0 0 127 0" result="hardAlpha"/>
<feOffset/>
<feGaussianBlur stdDeviation="10.5999"/>
<feComposite in2="hardAlpha" operator="out"/>
<feColorMatrix type="matrix" values="0 0 0 0 1 0 0 0 0 0.370833 0 0 0 0 0.370833 0 0 0 0.45 0"/>
<feBlend mode="normal" in2="effect1_dropShadow_13639_2369" result="effect2_dropShadow_13639_2369"/>
<feBlend mode="normal" in="SourceGraphic" in2="effect2_dropShadow_13639_2369" result="shape"/>
</filter>
<linearGradient id="paint0_linear_13639_2369" x1="38.4012" y1="38.3821" x2="38.4012" y2="54.7637" gradientUnits="userSpaceOnUse">
<stop stop-color="#FF7A7A"/>
<stop offset="1" stop-color="#C62A2A"/>
</linearGradient>
<linearGradient id="paint1_linear_13639_2369" x1="44.9722" y1="47.7432" x2="44.9722" y2="54.7639" gradientUnits="userSpaceOnUse">
<stop stop-color="#FF7A7A"/>
<stop offset="1" stop-color="#C62A2A"/>
</linearGradient>
<linearGradient id="paint2_linear_13639_2369" x1="38.401" y1="22.0007" x2="38.401" y2="41.8927" gradientUnits="userSpaceOnUse">
<stop stop-color="#FF7A7A"/>
<stop offset="1" stop-color="#C62A2A"/>
</linearGradient>
</defs>
</svg>
