<svg width="60" height="35" viewBox="0 0 60 35" fill="none" xmlns="http://www.w3.org/2000/svg">
<path d="M3.08984 31.2193L3.08984 34.3113L6.18178 34.3113L6.18178 31.2193L3.08984 31.2193Z" fill="url(#paint0_linear_13639_4750)"/>
<path d="M53.0625 31.2189L53.0625 34.3108L56.1544 34.3108L56.1544 31.2189L53.0625 31.2189Z" fill="url(#paint1_linear_13639_4750)"/>
<path d="M3.08984 24.9352L3.08984 28.0271L6.18178 28.0271L6.18178 24.9352L3.08984 24.9352Z" fill="url(#paint2_linear_13639_4750)"/>
<path d="M46.876 24.9349L46.876 28.0269L49.9679 28.0269L49.9679 24.9349L46.876 24.9349Z" fill="url(#paint3_linear_13639_4750)"/>
<path d="M53.0625 24.9354L53.0625 28.0273L56.1544 28.0273L56.1544 24.9354L53.0625 24.9354Z" fill="url(#paint4_linear_13639_4750)"/>
<path d="M9.37305 24.9347L9.37305 28.0266L12.465 28.0266L12.465 24.9347L9.37305 24.9347Z" fill="url(#paint5_linear_13639_4750)"/>
<path d="M9.37305 18.7516L9.37305 21.8435L12.465 21.8435L12.465 18.7516L9.37305 18.7516Z" fill="url(#paint6_linear_13639_4750)"/>
<path d="M15.6582 18.7508L15.6582 21.8428L18.7501 21.8428L18.7501 18.7508L15.6582 18.7508Z" fill="url(#paint7_linear_13639_4750)"/>
<path d="M40.5928 18.7516L40.5928 21.8435L43.6847 21.8435L43.6847 18.7516L40.5928 18.7516Z" fill="url(#paint8_linear_13639_4750)"/>
<path d="M46.876 18.7516L46.876 21.8435L49.9679 21.8435L49.9679 18.7516L46.876 18.7516Z" fill="url(#paint9_linear_13639_4750)"/>
<path d="M15.6582 12.4674L15.6582 15.5593L18.7501 15.5593L18.7501 12.4674L15.6582 12.4674Z" fill="url(#paint10_linear_13639_4750)"/>
<path d="M40.5928 12.4674L40.5928 15.5593L43.6847 15.5593L43.6847 12.4674L40.5928 12.4674Z" fill="url(#paint11_linear_13639_4750)"/>
<path d="M34.3105 12.4674L34.3105 15.5593L37.4025 15.5593L37.4025 12.4674L34.3105 12.4674Z" fill="url(#paint12_linear_13639_4750)"/>
<path d="M21.8447 12.4679L21.8447 15.5598L24.9367 15.5598L24.9367 12.4679L21.8447 12.4679Z" fill="url(#paint13_linear_13639_4750)"/>
<path d="M34.3105 6.28428L34.3105 9.37622L37.4025 9.37622L37.4025 6.28428L34.3105 6.28428Z" fill="url(#paint14_linear_13639_4750)"/>
<path d="M21.8447 6.28379L21.8447 9.37573L24.9367 9.37573L24.9367 6.28379L21.8447 6.28379Z" fill="url(#paint15_linear_13639_4750)"/>
<path d="M28.1289 6.28379L28.1289 9.37573L31.2208 9.37573L31.2208 6.28379L28.1289 6.28379Z" fill="url(#paint16_linear_13639_4750)"/>
<path d="M28.1289 9.94205e-05L28.1289 3.09204L31.2208 3.09204L31.2208 9.92854e-05L28.1289 9.94205e-05Z" fill="url(#paint17_linear_13639_4750)"/>
<path d="M56.2539 28.1266L56.2539 31.2185L59.3458 31.2185L59.3458 28.1266L56.2539 28.1266Z" fill="url(#paint18_linear_13639_4750)"/>
<path d="M56.2539 31.2186L56.2539 34.3105L59.3458 34.3105L59.3458 31.2186L56.2539 31.2186Z" fill="url(#paint19_linear_13639_4750)"/>
<path d="M56.2539 24.9347L56.2539 28.0266L59.3458 28.0266L59.3458 24.9347L56.2539 24.9347Z" fill="url(#paint20_linear_13639_4750)"/>
<path d="M49.9687 28.1266L49.9688 31.2185L53.0607 31.2185L53.0607 28.1266L49.9687 28.1266Z" fill="url(#paint21_linear_13639_4750)"/>
<path d="M49.9687 21.8436L49.9688 24.9355L53.0607 24.9355L53.0607 21.8436L49.9687 21.8436Z" fill="url(#paint22_linear_13639_4750)"/>
<path d="M49.9687 31.2193L49.9688 34.3113L53.0607 34.3113L53.0607 31.2193L49.9687 31.2193Z" fill="url(#paint23_linear_13639_4750)"/>
<path d="M49.9687 24.9347L49.9688 28.0266L53.0607 28.0266L53.0607 24.9347L49.9687 24.9347Z" fill="url(#paint24_linear_13639_4750)"/>
<path d="M49.9687 18.7516L49.9688 21.8435L53.0607 21.8435L53.0607 18.7516L49.9687 18.7516Z" fill="url(#paint25_linear_13639_4750)"/>
<path d="M43.6855 15.5592L43.6855 18.6511L46.7775 18.6511L46.7775 15.5592L43.6855 15.5592Z" fill="url(#paint26_linear_13639_4750)"/>
<path d="M43.6855 21.8434L43.6855 24.9353L46.7775 24.9353L46.7775 21.8434L43.6855 21.8434Z" fill="url(#paint27_linear_13639_4750)"/>
<path d="M43.6855 24.9349L43.6855 28.0269L46.7775 28.0269L46.7775 24.9349L43.6855 24.9349Z" fill="url(#paint28_linear_13639_4750)"/>
<path d="M43.6855 18.7511L43.6855 21.843L46.7775 21.843L46.7775 18.7511L43.6855 18.7511Z" fill="url(#paint29_linear_13639_4750)"/>
<path d="M43.6855 12.4674L43.6855 15.5593L46.7775 15.5593L46.7775 12.4674L43.6855 12.4674Z" fill="url(#paint30_linear_13639_4750)"/>
<path d="M37.501 9.37559L37.501 12.4675L40.5929 12.4675L40.5929 9.37559L37.501 9.37559Z" fill="url(#paint31_linear_13639_4750)"/>
<path d="M37.501 15.5597L37.501 18.6516L40.5929 18.6516L40.5929 15.5597L37.501 15.5597Z" fill="url(#paint32_linear_13639_4750)"/>
<path d="M37.501 18.7511L37.501 21.843L40.5929 21.843L40.5929 18.7511L37.501 18.7511Z" fill="url(#paint33_linear_13639_4750)"/>
<path d="M37.501 12.4674L37.501 15.5593L40.5929 15.5593L40.5929 12.4674L37.501 12.4674Z" fill="url(#paint34_linear_13639_4750)"/>
<path d="M37.501 6.28404L37.501 9.37598L40.5929 9.37598L40.5929 6.28404L37.501 6.28404Z" fill="url(#paint35_linear_13639_4750)"/>
<path d="M31.2178 9.37583L31.2178 12.4678L34.3097 12.4678L34.3097 9.37583L31.2178 9.37583Z" fill="url(#paint36_linear_13639_4750)"/>
<path d="M31.2178 3.09214L31.2178 6.18408L34.3097 6.18408L34.3097 3.09214L31.2178 3.09214Z" fill="url(#paint37_linear_13639_4750)"/>
<path d="M31.2178 12.4676L31.2178 15.5596L34.3097 15.5596L34.3097 12.4676L31.2178 12.4676Z" fill="url(#paint38_linear_13639_4750)"/>
<path d="M31.2178 6.28355L31.2178 9.37549L34.3097 9.37549L34.3097 6.28355L31.2178 6.28355Z" fill="url(#paint39_linear_13639_4750)"/>
<path d="M31.2178 0.000343561L31.2178 3.09229L34.3097 3.09229L34.3097 0.000343426L31.2178 0.000343561Z" fill="url(#paint40_linear_13639_4750)"/>
<path d="M24.9326 3.09214L24.9326 6.18408L28.0246 6.18408L28.0246 3.09214L24.9326 3.09214Z" fill="url(#paint41_linear_13639_4750)"/>
<path d="M24.9326 9.37535L24.9326 12.4673L28.0246 12.4673L28.0246 9.37535L24.9326 9.37535Z" fill="url(#paint42_linear_13639_4750)"/>
<path d="M24.9326 12.4671L24.9326 15.5591L28.0246 15.5591L28.0246 12.4671L24.9326 12.4671Z" fill="url(#paint43_linear_13639_4750)"/>
<path d="M24.9326 6.28404L24.9326 9.37598L28.0246 9.37598L28.0246 6.28404L24.9326 6.28404Z" fill="url(#paint44_linear_13639_4750)"/>
<path d="M24.9326 9.94205e-05L24.9326 3.09204L28.0246 3.09204L28.0246 9.92854e-05L24.9326 9.94205e-05Z" fill="url(#paint45_linear_13639_4750)"/>
<path d="M18.75 15.5594L18.75 18.6514L21.8419 18.6514L21.8419 15.5594L18.75 15.5594Z" fill="url(#paint46_linear_13639_4750)"/>
<path d="M18.75 9.37535L18.75 12.4673L21.8419 12.4673L21.8419 9.37535L18.75 9.37535Z" fill="url(#paint47_linear_13639_4750)"/>
<path d="M18.75 18.7511L18.75 21.843L21.8419 21.843L21.8419 18.7511L18.75 18.7511Z" fill="url(#paint48_linear_13639_4750)"/>
<path d="M18.75 12.4671L18.75 15.5591L21.8419 15.5591L21.8419 12.4671L18.75 12.4671Z" fill="url(#paint49_linear_13639_4750)"/>
<path d="M18.75 6.28404L18.75 9.37598L21.8419 9.37598L21.8419 6.28404L18.75 6.28404Z" fill="url(#paint50_linear_13639_4750)"/>
<path d="M12.4639 15.5594L12.4639 18.6514L15.5558 18.6514L15.5558 15.5594L12.4639 15.5594Z" fill="url(#paint51_linear_13639_4750)"/>
<path d="M12.4639 21.8431L12.4639 24.9351L15.5558 24.9351L15.5558 21.8431L12.4639 21.8431Z" fill="url(#paint52_linear_13639_4750)"/>
<path d="M12.4639 24.9354L12.4639 28.0273L15.5558 28.0273L15.5558 24.9354L12.4639 24.9354Z" fill="url(#paint53_linear_13639_4750)"/>
<path d="M12.4639 18.7516L12.4639 21.8435L15.5558 21.8435L15.5558 18.7516L12.4639 18.7516Z" fill="url(#paint54_linear_13639_4750)"/>
<path d="M12.4639 12.4674L12.4639 15.5593L15.5558 15.5593L15.5558 12.4674L12.4639 12.4674Z" fill="url(#paint55_linear_13639_4750)"/>
<path d="M6.28125 21.8431L6.28125 24.9351L9.37319 24.9351L9.37319 21.8431L6.28125 21.8431Z" fill="url(#paint56_linear_13639_4750)"/>
<path d="M6.28125 28.1266L6.28125 31.2185L9.37319 31.2185L9.37319 28.1266L6.28125 28.1266Z" fill="url(#paint57_linear_13639_4750)"/>
<path d="M6.28125 31.2191L6.28125 34.311L9.37319 34.311L9.37319 31.2191L6.28125 31.2191Z" fill="url(#paint58_linear_13639_4750)"/>
<path d="M6.28125 24.9352L6.28125 28.0271L9.37319 28.0271L9.37319 24.9352L6.28125 24.9352Z" fill="url(#paint59_linear_13639_4750)"/>
<path d="M6.28125 18.7511L6.28125 21.843L9.37319 21.843L9.37319 18.7511L6.28125 18.7511Z" fill="url(#paint60_linear_13639_4750)"/>
<path d="M-1.35153e-07 28.1268L0 31.2188L3.09194 31.2187L3.09194 28.1268L-1.35153e-07 28.1268Z" fill="url(#paint61_linear_13639_4750)"/>
<path d="M-1.35153e-07 31.2189L0 34.3108L3.09194 34.3108L3.09194 31.2189L-1.35153e-07 31.2189Z" fill="url(#paint62_linear_13639_4750)"/>
<path d="M-1.35153e-07 24.9352L0 28.0271L3.09194 28.0271L3.09194 24.9352L-1.35153e-07 24.9352Z" fill="url(#paint63_linear_13639_4750)"/>
<defs>
<linearGradient id="paint0_linear_13639_4750" x1="4.68519" y1="30.5902" x2="4.68519" y2="35.309" gradientUnits="userSpaceOnUse">
<stop stop-color="#FFCF61"/>
<stop offset="1" stop-color="#FBCA36"/>
</linearGradient>
<linearGradient id="paint1_linear_13639_4750" x1="54.6578" y1="30.5897" x2="54.6578" y2="35.3085" gradientUnits="userSpaceOnUse">
<stop stop-color="#FFCF61"/>
<stop offset="1" stop-color="#FBCA36"/>
</linearGradient>
<linearGradient id="paint2_linear_13639_4750" x1="4.68519" y1="24.306" x2="4.68519" y2="29.0248" gradientUnits="userSpaceOnUse">
<stop stop-color="#FFCF61"/>
<stop offset="1" stop-color="#FBCA36"/>
</linearGradient>
<linearGradient id="paint3_linear_13639_4750" x1="48.4713" y1="24.3058" x2="48.4713" y2="29.0246" gradientUnits="userSpaceOnUse">
<stop stop-color="#FFCF61"/>
<stop offset="1" stop-color="#FBCA36"/>
</linearGradient>
<linearGradient id="paint4_linear_13639_4750" x1="54.6578" y1="24.3062" x2="54.6578" y2="29.025" gradientUnits="userSpaceOnUse">
<stop stop-color="#FFCF61"/>
<stop offset="1" stop-color="#FBCA36"/>
</linearGradient>
<linearGradient id="paint5_linear_13639_4750" x1="10.9684" y1="24.3055" x2="10.9684" y2="29.0243" gradientUnits="userSpaceOnUse">
<stop stop-color="#FFCF61"/>
<stop offset="1" stop-color="#FBCA36"/>
</linearGradient>
<linearGradient id="paint6_linear_13639_4750" x1="10.9684" y1="18.1224" x2="10.9684" y2="22.8412" gradientUnits="userSpaceOnUse">
<stop stop-color="#FFCF61"/>
<stop offset="1" stop-color="#FBCA36"/>
</linearGradient>
<linearGradient id="paint7_linear_13639_4750" x1="17.2535" y1="18.1217" x2="17.2535" y2="22.8405" gradientUnits="userSpaceOnUse">
<stop stop-color="#FFCF61"/>
<stop offset="1" stop-color="#FBCA36"/>
</linearGradient>
<linearGradient id="paint8_linear_13639_4750" x1="42.1881" y1="18.1224" x2="42.1881" y2="22.8412" gradientUnits="userSpaceOnUse">
<stop stop-color="#FFCF61"/>
<stop offset="1" stop-color="#FBCA36"/>
</linearGradient>
<linearGradient id="paint9_linear_13639_4750" x1="48.4713" y1="18.1224" x2="48.4713" y2="22.8412" gradientUnits="userSpaceOnUse">
<stop stop-color="#FFCF61"/>
<stop offset="1" stop-color="#FBCA36"/>
</linearGradient>
<linearGradient id="paint10_linear_13639_4750" x1="17.2535" y1="11.8382" x2="17.2535" y2="16.557" gradientUnits="userSpaceOnUse">
<stop stop-color="#FFCF61"/>
<stop offset="1" stop-color="#FBCA36"/>
</linearGradient>
<linearGradient id="paint11_linear_13639_4750" x1="42.1881" y1="11.8382" x2="42.1881" y2="16.557" gradientUnits="userSpaceOnUse">
<stop stop-color="#FFCF61"/>
<stop offset="1" stop-color="#FBCA36"/>
</linearGradient>
<linearGradient id="paint12_linear_13639_4750" x1="35.9059" y1="11.8382" x2="35.9059" y2="16.557" gradientUnits="userSpaceOnUse">
<stop stop-color="#FFCF61"/>
<stop offset="1" stop-color="#FBCA36"/>
</linearGradient>
<linearGradient id="paint13_linear_13639_4750" x1="23.4401" y1="11.8387" x2="23.4401" y2="16.5575" gradientUnits="userSpaceOnUse">
<stop stop-color="#FFCF61"/>
<stop offset="1" stop-color="#FBCA36"/>
</linearGradient>
<linearGradient id="paint14_linear_13639_4750" x1="35.9059" y1="5.65512" x2="35.9059" y2="10.3739" gradientUnits="userSpaceOnUse">
<stop stop-color="#FFCF61"/>
<stop offset="1" stop-color="#FBCA36"/>
</linearGradient>
<linearGradient id="paint15_linear_13639_4750" x1="23.4401" y1="5.65463" x2="23.4401" y2="10.3734" gradientUnits="userSpaceOnUse">
<stop stop-color="#FFCF61"/>
<stop offset="1" stop-color="#FBCA36"/>
</linearGradient>
<linearGradient id="paint16_linear_13639_4750" x1="29.7242" y1="5.65463" x2="29.7242" y2="10.3734" gradientUnits="userSpaceOnUse">
<stop stop-color="#FFCF61"/>
<stop offset="1" stop-color="#FBCA36"/>
</linearGradient>
<linearGradient id="paint17_linear_13639_4750" x1="29.7242" y1="-0.629066" x2="29.7242" y2="4.08974" gradientUnits="userSpaceOnUse">
<stop stop-color="#FFCF61"/>
<stop offset="1" stop-color="#FBCA36"/>
</linearGradient>
<linearGradient id="paint18_linear_13639_4750" x1="57.8492" y1="27.4974" x2="57.8492" y2="32.2162" gradientUnits="userSpaceOnUse">
<stop stop-color="#FFCF61"/>
<stop offset="1" stop-color="#FBCA36"/>
</linearGradient>
<linearGradient id="paint19_linear_13639_4750" x1="57.8492" y1="30.5894" x2="57.8492" y2="35.3082" gradientUnits="userSpaceOnUse">
<stop stop-color="#FFCF61"/>
<stop offset="1" stop-color="#FBCA36"/>
</linearGradient>
<linearGradient id="paint20_linear_13639_4750" x1="57.8492" y1="24.3055" x2="57.8492" y2="29.0243" gradientUnits="userSpaceOnUse">
<stop stop-color="#FFCF61"/>
<stop offset="1" stop-color="#FBCA36"/>
</linearGradient>
<linearGradient id="paint21_linear_13639_4750" x1="51.5641" y1="27.4974" x2="51.5641" y2="32.2162" gradientUnits="userSpaceOnUse">
<stop stop-color="#FFCF61"/>
<stop offset="1" stop-color="#FBCA36"/>
</linearGradient>
<linearGradient id="paint22_linear_13639_4750" x1="51.5641" y1="21.2144" x2="51.5641" y2="25.9332" gradientUnits="userSpaceOnUse">
<stop stop-color="#FFCF61"/>
<stop offset="1" stop-color="#FBCA36"/>
</linearGradient>
<linearGradient id="paint23_linear_13639_4750" x1="51.5641" y1="30.5902" x2="51.5641" y2="35.309" gradientUnits="userSpaceOnUse">
<stop stop-color="#FFCF61"/>
<stop offset="1" stop-color="#FBCA36"/>
</linearGradient>
<linearGradient id="paint24_linear_13639_4750" x1="51.5641" y1="24.3055" x2="51.5641" y2="29.0243" gradientUnits="userSpaceOnUse">
<stop stop-color="#FFCF61"/>
<stop offset="1" stop-color="#FBCA36"/>
</linearGradient>
<linearGradient id="paint25_linear_13639_4750" x1="51.5641" y1="18.1224" x2="51.5641" y2="22.8412" gradientUnits="userSpaceOnUse">
<stop stop-color="#FFCF61"/>
<stop offset="1" stop-color="#FBCA36"/>
</linearGradient>
<linearGradient id="paint26_linear_13639_4750" x1="45.2809" y1="14.93" x2="45.2809" y2="19.6488" gradientUnits="userSpaceOnUse">
<stop stop-color="#FFCF61"/>
<stop offset="1" stop-color="#FBCA36"/>
</linearGradient>
<linearGradient id="paint27_linear_13639_4750" x1="45.2809" y1="21.2142" x2="45.2809" y2="25.933" gradientUnits="userSpaceOnUse">
<stop stop-color="#FFCF61"/>
<stop offset="1" stop-color="#FBCA36"/>
</linearGradient>
<linearGradient id="paint28_linear_13639_4750" x1="45.2809" y1="24.3058" x2="45.2809" y2="29.0246" gradientUnits="userSpaceOnUse">
<stop stop-color="#FFCF61"/>
<stop offset="1" stop-color="#FBCA36"/>
</linearGradient>
<linearGradient id="paint29_linear_13639_4750" x1="45.2809" y1="18.1219" x2="45.2809" y2="22.8407" gradientUnits="userSpaceOnUse">
<stop stop-color="#FFCF61"/>
<stop offset="1" stop-color="#FBCA36"/>
</linearGradient>
<linearGradient id="paint30_linear_13639_4750" x1="45.2809" y1="11.8382" x2="45.2809" y2="16.557" gradientUnits="userSpaceOnUse">
<stop stop-color="#FFCF61"/>
<stop offset="1" stop-color="#FBCA36"/>
</linearGradient>
<linearGradient id="paint31_linear_13639_4750" x1="39.0963" y1="8.74642" x2="39.0963" y2="13.4652" gradientUnits="userSpaceOnUse">
<stop stop-color="#FFCF61"/>
<stop offset="1" stop-color="#FBCA36"/>
</linearGradient>
<linearGradient id="paint32_linear_13639_4750" x1="39.0963" y1="14.9305" x2="39.0963" y2="19.6493" gradientUnits="userSpaceOnUse">
<stop stop-color="#FFCF61"/>
<stop offset="1" stop-color="#FBCA36"/>
</linearGradient>
<linearGradient id="paint33_linear_13639_4750" x1="39.0963" y1="18.1219" x2="39.0963" y2="22.8407" gradientUnits="userSpaceOnUse">
<stop stop-color="#FFCF61"/>
<stop offset="1" stop-color="#FBCA36"/>
</linearGradient>
<linearGradient id="paint34_linear_13639_4750" x1="39.0963" y1="11.8382" x2="39.0963" y2="16.557" gradientUnits="userSpaceOnUse">
<stop stop-color="#FFCF61"/>
<stop offset="1" stop-color="#FBCA36"/>
</linearGradient>
<linearGradient id="paint35_linear_13639_4750" x1="39.0963" y1="5.65487" x2="39.0963" y2="10.3737" gradientUnits="userSpaceOnUse">
<stop stop-color="#FFCF61"/>
<stop offset="1" stop-color="#FBCA36"/>
</linearGradient>
<linearGradient id="paint36_linear_13639_4750" x1="32.8131" y1="8.74667" x2="32.8131" y2="13.4655" gradientUnits="userSpaceOnUse">
<stop stop-color="#FFCF61"/>
<stop offset="1" stop-color="#FBCA36"/>
</linearGradient>
<linearGradient id="paint37_linear_13639_4750" x1="32.8131" y1="2.46298" x2="32.8131" y2="7.18178" gradientUnits="userSpaceOnUse">
<stop stop-color="#FFCF61"/>
<stop offset="1" stop-color="#FBCA36"/>
</linearGradient>
<linearGradient id="paint38_linear_13639_4750" x1="32.8131" y1="11.8385" x2="32.8131" y2="16.5573" gradientUnits="userSpaceOnUse">
<stop stop-color="#FFCF61"/>
<stop offset="1" stop-color="#FBCA36"/>
</linearGradient>
<linearGradient id="paint39_linear_13639_4750" x1="32.8131" y1="5.65438" x2="32.8131" y2="10.3732" gradientUnits="userSpaceOnUse">
<stop stop-color="#FFCF61"/>
<stop offset="1" stop-color="#FBCA36"/>
</linearGradient>
<linearGradient id="paint40_linear_13639_4750" x1="32.8131" y1="-0.628821" x2="32.8131" y2="4.08998" gradientUnits="userSpaceOnUse">
<stop stop-color="#FFCF61"/>
<stop offset="1" stop-color="#FBCA36"/>
</linearGradient>
<linearGradient id="paint41_linear_13639_4750" x1="26.528" y1="2.46298" x2="26.528" y2="7.18178" gradientUnits="userSpaceOnUse">
<stop stop-color="#FFCF61"/>
<stop offset="1" stop-color="#FBCA36"/>
</linearGradient>
<linearGradient id="paint42_linear_13639_4750" x1="26.528" y1="8.74618" x2="26.528" y2="13.465" gradientUnits="userSpaceOnUse">
<stop stop-color="#FFCF61"/>
<stop offset="1" stop-color="#FBCA36"/>
</linearGradient>
<linearGradient id="paint43_linear_13639_4750" x1="26.528" y1="11.838" x2="26.528" y2="16.5568" gradientUnits="userSpaceOnUse">
<stop stop-color="#FFCF61"/>
<stop offset="1" stop-color="#FBCA36"/>
</linearGradient>
<linearGradient id="paint44_linear_13639_4750" x1="26.528" y1="5.65487" x2="26.528" y2="10.3737" gradientUnits="userSpaceOnUse">
<stop stop-color="#FFCF61"/>
<stop offset="1" stop-color="#FBCA36"/>
</linearGradient>
<linearGradient id="paint45_linear_13639_4750" x1="26.528" y1="-0.629066" x2="26.528" y2="4.08974" gradientUnits="userSpaceOnUse">
<stop stop-color="#FFCF61"/>
<stop offset="1" stop-color="#FBCA36"/>
</linearGradient>
<linearGradient id="paint46_linear_13639_4750" x1="20.3453" y1="14.9303" x2="20.3453" y2="19.6491" gradientUnits="userSpaceOnUse">
<stop stop-color="#FFCF61"/>
<stop offset="1" stop-color="#FBCA36"/>
</linearGradient>
<linearGradient id="paint47_linear_13639_4750" x1="20.3453" y1="8.74618" x2="20.3453" y2="13.465" gradientUnits="userSpaceOnUse">
<stop stop-color="#FFCF61"/>
<stop offset="1" stop-color="#FBCA36"/>
</linearGradient>
<linearGradient id="paint48_linear_13639_4750" x1="20.3453" y1="18.1219" x2="20.3453" y2="22.8407" gradientUnits="userSpaceOnUse">
<stop stop-color="#FFCF61"/>
<stop offset="1" stop-color="#FBCA36"/>
</linearGradient>
<linearGradient id="paint49_linear_13639_4750" x1="20.3453" y1="11.838" x2="20.3453" y2="16.5568" gradientUnits="userSpaceOnUse">
<stop stop-color="#FFCF61"/>
<stop offset="1" stop-color="#FBCA36"/>
</linearGradient>
<linearGradient id="paint50_linear_13639_4750" x1="20.3453" y1="5.65487" x2="20.3453" y2="10.3737" gradientUnits="userSpaceOnUse">
<stop stop-color="#FFCF61"/>
<stop offset="1" stop-color="#FBCA36"/>
</linearGradient>
<linearGradient id="paint51_linear_13639_4750" x1="14.0592" y1="14.9303" x2="14.0592" y2="19.6491" gradientUnits="userSpaceOnUse">
<stop stop-color="#FFCF61"/>
<stop offset="1" stop-color="#FBCA36"/>
</linearGradient>
<linearGradient id="paint52_linear_13639_4750" x1="14.0592" y1="21.214" x2="14.0592" y2="25.9328" gradientUnits="userSpaceOnUse">
<stop stop-color="#FFCF61"/>
<stop offset="1" stop-color="#FBCA36"/>
</linearGradient>
<linearGradient id="paint53_linear_13639_4750" x1="14.0592" y1="24.3062" x2="14.0592" y2="29.025" gradientUnits="userSpaceOnUse">
<stop stop-color="#FFCF61"/>
<stop offset="1" stop-color="#FBCA36"/>
</linearGradient>
<linearGradient id="paint54_linear_13639_4750" x1="14.0592" y1="18.1224" x2="14.0592" y2="22.8412" gradientUnits="userSpaceOnUse">
<stop stop-color="#FFCF61"/>
<stop offset="1" stop-color="#FBCA36"/>
</linearGradient>
<linearGradient id="paint55_linear_13639_4750" x1="14.0592" y1="11.8382" x2="14.0592" y2="16.557" gradientUnits="userSpaceOnUse">
<stop stop-color="#FFCF61"/>
<stop offset="1" stop-color="#FBCA36"/>
</linearGradient>
<linearGradient id="paint56_linear_13639_4750" x1="7.87659" y1="21.214" x2="7.87659" y2="25.9328" gradientUnits="userSpaceOnUse">
<stop stop-color="#FFCF61"/>
<stop offset="1" stop-color="#FBCA36"/>
</linearGradient>
<linearGradient id="paint57_linear_13639_4750" x1="7.87659" y1="27.4974" x2="7.87659" y2="32.2162" gradientUnits="userSpaceOnUse">
<stop stop-color="#FFCF61"/>
<stop offset="1" stop-color="#FBCA36"/>
</linearGradient>
<linearGradient id="paint58_linear_13639_4750" x1="7.87659" y1="30.5899" x2="7.87659" y2="35.3087" gradientUnits="userSpaceOnUse">
<stop stop-color="#FFCF61"/>
<stop offset="1" stop-color="#FBCA36"/>
</linearGradient>
<linearGradient id="paint59_linear_13639_4750" x1="7.87659" y1="24.306" x2="7.87659" y2="29.0248" gradientUnits="userSpaceOnUse">
<stop stop-color="#FFCF61"/>
<stop offset="1" stop-color="#FBCA36"/>
</linearGradient>
<linearGradient id="paint60_linear_13639_4750" x1="7.87659" y1="18.1219" x2="7.87659" y2="22.8407" gradientUnits="userSpaceOnUse">
<stop stop-color="#FFCF61"/>
<stop offset="1" stop-color="#FBCA36"/>
</linearGradient>
<linearGradient id="paint61_linear_13639_4750" x1="1.59534" y1="27.4976" x2="1.59534" y2="32.2164" gradientUnits="userSpaceOnUse">
<stop stop-color="#FFCF61"/>
<stop offset="1" stop-color="#FBCA36"/>
</linearGradient>
<linearGradient id="paint62_linear_13639_4750" x1="1.59534" y1="30.5897" x2="1.59534" y2="35.3085" gradientUnits="userSpaceOnUse">
<stop stop-color="#FFCF61"/>
<stop offset="1" stop-color="#FBCA36"/>
</linearGradient>
<linearGradient id="paint63_linear_13639_4750" x1="1.59534" y1="24.306" x2="1.59534" y2="29.0248" gradientUnits="userSpaceOnUse">
<stop stop-color="#FFCF61"/>
<stop offset="1" stop-color="#FBCA36"/>
</linearGradient>
</defs>
</svg>
