<svg width="98" height="91" viewBox="0 0 98 91" fill="none" xmlns="http://www.w3.org/2000/svg">
<g filter="url(#filter0_dd_13639_3174)">
<path d="M64.2664 30.9131H58.0224C56.9239 30.9131 56.0825 31.7807 56.0825 32.8793V37.1457H51.7784C50.6799 37.1457 49.8498 38.0248 49.8498 39.1234V43.3783H45.5344C44.4358 43.3783 43.4846 44.2689 43.4846 45.3674V49.6109H41.2303V45.3674C41.2303 44.2688 40.3889 43.3782 39.2903 43.3782H33.0465C31.9478 43.3782 31.0195 44.2688 31.0195 45.3674V51.6114C31.0195 52.7099 31.9478 53.5891 33.0465 53.5891H37.2521V57.8555C37.2521 58.954 38.1918 59.8217 39.2904 59.8217H45.5344C46.633 59.8217 47.463 58.954 47.463 57.8555V53.5891H51.7785C52.877 53.5891 53.8282 52.7099 53.8282 51.6114V47.3565H58.0225C59.121 47.3565 60.0608 46.4659 60.0608 45.3674V41.1239H64.2664C65.3651 41.1239 66.2934 40.2219 66.2934 39.1233V32.8793C66.2934 31.7807 65.3651 30.9131 64.2664 30.9131ZM37.2521 49.6108H34.9978V47.3565H37.2521V49.6108ZM43.4847 55.8434H41.2303V53.5891H43.4847V55.8434ZM49.8499 49.6108H47.4629V47.3565H49.8499V49.6108ZM56.0825 43.3782H53.8281V41.1239H56.0825V43.3782ZM62.3151 37.1457H60.0608V34.8913H62.3151V37.1457Z" fill="url(#paint0_linear_13639_3174)"/>
</g>
<defs>
<filter id="filter0_dd_13639_3174" x="0.183531" y="0.0770855" width="96.9454" height="90.5807" filterUnits="userSpaceOnUse" color-interpolation-filters="sRGB">
<feFlood flood-opacity="0" result="BackgroundImageFix"/>
<feColorMatrix in="SourceAlpha" type="matrix" values="0 0 0 0 0 0 0 0 0 0 0 0 0 0 0 0 0 0 127 0" result="hardAlpha"/>
<feOffset dy="3.8545"/>
<feGaussianBlur stdDeviation="1.92725"/>
<feComposite in2="hardAlpha" operator="out"/>
<feColorMatrix type="matrix" values="0 0 0 0 0 0 0 0 0 0 0 0 0 0 0 0 0 0 0.25 0"/>
<feBlend mode="normal" in2="BackgroundImageFix" result="effect1_dropShadow_13639_3174"/>
<feColorMatrix in="SourceAlpha" type="matrix" values="0 0 0 0 0 0 0 0 0 0 0 0 0 0 0 0 0 0 127 0" result="hardAlpha"/>
<feOffset/>
<feGaussianBlur stdDeviation="15.418"/>
<feComposite in2="hardAlpha" operator="out"/>
<feColorMatrix type="matrix" values="0 0 0 0 0.984314 0 0 0 0 0.792157 0 0 0 0 0.211765 0 0 0 0.4 0"/>
<feBlend mode="normal" in2="effect1_dropShadow_13639_3174" result="effect2_dropShadow_13639_3174"/>
<feBlend mode="normal" in="SourceGraphic" in2="effect2_dropShadow_13639_3174" result="shape"/>
</filter>
<linearGradient id="paint0_linear_13639_3174" x1="48.6564" y1="30.9131" x2="48.6564" y2="59.8217" gradientUnits="userSpaceOnUse">
<stop stop-color="#FFE081"/>
<stop offset="1" stop-color="#FBCA36"/>
</linearGradient>
</defs>
</svg>
