<svg width="24" height="24" viewBox="0 0 24 24" fill="none" xmlns="http://www.w3.org/2000/svg">
<path d="M4 4H6.28571V6.28571H4V4ZM8.57143 8.57143H6.28571V6.28571H8.57143V8.57143ZM10.8571 10.8571H8.57143V8.57143H10.8571V10.8571ZM13.1429 10.8571H10.8571V13.1429H8.57143V15.4286H6.28571V17.7143H4V20H6.28571V17.7143H8.57143V15.4286H10.8571V13.1429H13.1429V15.4286H15.4286V17.7143H17.7143V20H20V17.7143H17.7143V15.4286H15.4286V13.1429H13.1429V10.8571ZM15.4286 8.57143V10.8571H13.1429V8.57143H15.4286ZM17.7143 6.28571V8.57143H15.4286V6.28571H17.7143ZM17.7143 6.28571V4H20V6.28571H17.7143Z" fill="#FF4747"/>
</svg>
